<svg xmlns="http://www.w3.org/2000/svg" viewBox="0 0 1024 1024" role="img" aria-label="RecallX icon">
  <defs>
    <linearGradient id="bg" x1="148" y1="98" x2="876" y2="926" gradientUnits="userSpaceOnUse">
      <stop offset="0" stop-color="#171814"/>
      <stop offset="0.52" stop-color="#070806"/>
      <stop offset="1" stop-color="#11130f"/>
    </linearGradient>
    <linearGradient id="acid" x1="266" y1="214" x2="792" y2="814" gradientUnits="userSpaceOnUse">
      <stop offset="0" stop-color="#f4ffd8"/>
      <stop offset="0.38" stop-color="#c8ff85"/>
      <stop offset="1" stop-color="#79cc41"/>
    </linearGradient>
    <linearGradient id="panel" x1="270" y1="226" x2="758" y2="805" gradientUnits="userSpaceOnUse">
      <stop offset="0" stop-color="#f7f4ee" stop-opacity="0.22"/>
      <stop offset="1" stop-color="#f7f4ee" stop-opacity="0.04"/>
    </linearGradient>
    <filter id="shadow" x="-20%" y="-20%" width="140%" height="140%" color-interpolation-filters="sRGB">
      <feDropShadow dx="0" dy="36" stdDeviation="42" flood-color="#000000" flood-opacity="0.45"/>
    </filter>
    <filter id="acidGlow" x="-30%" y="-30%" width="160%" height="160%" color-interpolation-filters="sRGB">
      <feDropShadow dx="0" dy="0" stdDeviation="20" flood-color="#c8ff85" flood-opacity="0.38"/>
      <feDropShadow dx="0" dy="18" stdDeviation="26" flood-color="#000000" flood-opacity="0.32"/>
    </filter>
  </defs>

  <rect width="1024" height="1024" rx="224" fill="url(#bg)"/>
  <path d="M182 280h660M182 744h660" stroke="#f7f4ee" stroke-opacity="0.055" stroke-width="2"/>
  <path d="M280 182v660M744 182v660" stroke="#f7f4ee" stroke-opacity="0.055" stroke-width="2"/>

  <g filter="url(#shadow)">
    <rect x="218" y="184" width="588" height="656" rx="104" fill="#10110f" stroke="#f7f4ee" stroke-opacity="0.14" stroke-width="7"/>
    <rect x="260" y="236" width="504" height="552" rx="72" fill="url(#panel)" stroke="#f7f4ee" stroke-opacity="0.1" stroke-width="4"/>
    <path d="M332 348h360M332 446h228M332 648h348" stroke="#f7f4ee" stroke-opacity="0.18" stroke-width="30" stroke-linecap="round"/>
  </g>

  <g filter="url(#acidGlow)">
    <path d="M337 319l350 386" stroke="url(#acid)" stroke-width="114" stroke-linecap="round"/>
    <path d="M690 319L337 705" stroke="url(#acid)" stroke-width="114" stroke-linecap="round"/>
    <path d="M393 381l238 262M631 381L393 643" stroke="#f7f4ee" stroke-opacity="0.28" stroke-width="18" stroke-linecap="round"/>
  </g>

  <circle cx="512" cy="512" r="64" fill="#050505" stroke="#f7f4ee" stroke-opacity="0.1" stroke-width="6"/>
  <circle cx="512" cy="512" r="21" fill="#c8ff85"/>
</svg>
